<svg width="45" height="45" viewBox="0 0 45 45" fill="none" xmlns="http://www.w3.org/2000/svg">
<g clip-path="url(#clip0_228_6)">
<circle cx="23" cy="23" r="10" fill="white"/>
<path d="M19.2056 19.756L19.8231 40.4347C19.8947 42.8319 18.1568 44.7757 15.8798 43.8949C8.52088 41.9856 -2.14726 32.2614 0.378625 18.7003C0.785432 16.5161 3.91249 15.0282 6.18337 14.9657L13.7727 14.7562C17.7758 14.7212 19.1204 16.9035 19.2056 19.756Z" fill="#FFD171"/>
<path d="M22.4386 27.7479L40.3694 16.633C42.4483 15.3442 44.5981 16.9453 44.9167 19.4779C46.1085 26.4478 42.7496 39.2999 29.5817 43.9081C27.4604 44.6504 24.8101 43.689 23.6628 41.6433L20.338 35.1586C18.7561 32.2009 19.9653 29.2811 22.4386 27.7479Z" fill="#73F2D6"/>
<path d="M27.9006 21.0302L9.50408 11.589C7.25258 10.3819 6.57596 6.60416 8.5047 4.97214C14.0862 0.249934 26.782 -3.39146 37.535 5.67539C39.3554 7.21042 39.7572 9.4381 38.7037 11.5656L35.1833 18.6752C33.8257 21.4172 30.58 22.4667 27.9006 21.0302Z" fill="#F8A2FF"/>
<path d="M15.7751 32C14.8246 32 13.9873 31.8197 13.2631 31.4593C12.5389 31.0987 11.9807 30.5989 11.5884 29.9598C11.1962 29.3045 11 28.5507 11 27.6986C11 26.9776 11.1358 26.3221 11.4073 25.7322C11.6941 25.1423 12.0711 24.6753 12.5389 24.3312C13.0217 23.987 13.5497 23.815 14.1231 23.815C14.6511 23.815 15.0962 23.9624 15.4583 24.2574C15.8204 24.536 16.0466 24.9293 16.1372 25.4373C15.3527 25.4373 14.7265 25.6666 14.2589 26.1255C13.7911 26.5679 13.5573 27.1742 13.5573 27.9444C13.5573 28.649 13.7534 29.2143 14.1457 29.6403C14.5379 30.0664 15.0585 30.2794 15.7072 30.2794C16.5069 30.2794 17.1631 29.9927 17.6761 29.4191C18.2041 28.8292 18.4682 28.0918 18.4682 27.207C18.4682 26.4368 18.2721 25.7076 17.8797 25.0194C17.4875 24.3312 16.8991 23.4955 16.1145 22.5123C15.2999 21.4964 14.6813 20.6278 14.2589 19.9068C13.8515 19.1695 13.6478 18.3665 13.6478 17.4981C13.6478 16.646 13.8666 15.884 14.3041 15.2122C14.7417 14.5239 15.3451 13.9832 16.1145 13.5899C16.8841 13.1966 17.7516 13 18.7172 13C19.9392 13 20.9123 13.3114 21.6365 13.934C22.3758 14.5567 22.7454 15.3924 22.7454 16.4411C22.7454 17.1294 22.587 17.6865 22.2702 18.1126C21.9534 18.5386 21.5385 18.7516 21.0255 18.7516C20.4521 18.7516 19.992 18.4976 19.645 17.9896C19.9317 17.7603 20.1579 17.4571 20.3239 17.0802C20.4899 16.7033 20.5728 16.31 20.5728 15.9004C20.5728 15.376 20.4296 14.9581 20.1428 14.6469C19.8562 14.3355 19.4639 14.1798 18.9661 14.1798C18.3626 14.1798 17.8647 14.4174 17.4724 14.8926C17.0952 15.3514 16.9066 15.9413 16.9066 16.6623C16.9066 17.3178 17.0802 17.9323 17.4272 18.5059C17.7742 19.063 18.3173 19.784 19.0566 20.6688C19.66 21.3734 20.1428 21.9797 20.5049 22.4877C20.8821 22.9957 21.199 23.5856 21.4555 24.2574C21.727 24.9129 21.8628 25.6257 21.8628 26.3959C21.8628 27.4446 21.5913 28.395 21.0482 29.2471C20.52 30.0992 19.7883 30.771 18.8529 31.2626C17.9326 31.7542 16.9066 32 15.7751 32ZM25.8529 31.7051C24.9929 31.7051 24.2763 31.3855 23.703 30.7464C23.1297 30.1074 22.843 29.1078 22.843 27.7477C22.843 26.5352 23.0617 25.2652 23.4993 23.9379C23.9518 22.5942 24.6158 21.4636 25.4908 20.5459C26.381 19.6119 27.437 19.1449 28.6591 19.1449C29.2777 19.1449 29.7379 19.2596 30.0396 19.4891C30.3414 19.7184 30.4922 20.0215 30.4922 20.3985V20.5705L30.7411 19.2678H34L32.3706 27.6249C32.3103 27.8706 32.28 28.1328 32.28 28.4113C32.28 28.7392 32.3479 28.9768 32.4838 29.1242C32.6346 29.2553 32.876 29.3208 33.2079 29.3208C33.4192 29.3208 33.5851 29.288 33.7058 29.2225C33.3739 30.1401 33.057 30.7875 32.7553 31.1643C32.4535 31.5248 32.016 31.7051 31.4427 31.7051C30.8241 31.7051 30.3187 31.5085 29.9265 31.1152C29.5493 30.7054 29.3154 30.1401 29.2249 29.4191C28.3045 30.943 27.1806 31.7051 25.8529 31.7051ZM27.3239 29.3208C27.7011 29.3208 28.0707 29.1323 28.4328 28.7555C28.81 28.3622 29.0665 27.8297 29.2023 27.1578L30.2886 21.6029C30.2886 21.3898 30.2131 21.185 30.0622 20.9884C29.9114 20.7754 29.6775 20.6688 29.3607 20.6688C28.7572 20.6688 28.2141 21.0539 27.7313 21.824C27.2484 22.5778 26.8713 23.4955 26.5997 24.5769C26.3282 25.642 26.1924 26.5843 26.1924 27.4037C26.1924 28.2229 26.298 28.7473 26.5092 28.9768C26.7355 29.2061 27.007 29.3208 27.3239 29.3208Z" fill="black"/>
</g>
<defs>
<clipPath id="clip0_228_6">
<rect width="45" height="45" fill="white"/>
</clipPath>
</defs>
</svg>
